<svg xmlns="http://www.w3.org/2000/svg" width="" height="">
    <path fill="#FFF" fill-rule="evenodd" d="M75.69 25.116L69.121 35.66 36.332 15.246l6.563-10.544c2.897-4.657 9.024-6.084 13.686-3.185l15.927 9.916c4.657 2.899 6.078 9.026 3.182 13.683zM36.269 88.308L3.552 67.899l30.284-48.542 32.719 20.426-30.286 48.525zm4.417-56.66c-1.54-.958-3.522-.563-4.4.871l-21.53 34.487c-.905 1.412-.388 3.367 1.162 4.328 1.526.965 3.507.567 4.405-.84l21.525-34.499c.897-1.432.368-3.391-1.162-4.347zm11.854 7.396c-1.533-.946-3.527-.566-4.405.868L26.601 74.409c-.888 1.407-.365 3.377 1.166 4.318 1.54.975 3.52.572 4.412-.84l21.535-34.482c.888-1.448.364-3.391-1.174-4.361zm-33.731 61.198c-1.586-3.328-4.072-6.278-7.432-8.368C8.02 89.783 4.28 88.856.598 88.9L.003 73.686l32.69 20.4-13.884 6.156zM9.59 94.736a15.505 15.505 0 0 1 6.015 6.923l-14.267 6.326-.609-15.592c3.02-.122 6.103.63 8.861 2.343z"/>
</svg>
