<svg xmlns="http://www.w3.org/2000/svg" width="" height="">
    <path fill="#FFF" fill-rule="evenodd" d="M12.154.973A11.157 11.157 0 0 0 .98 12.16v41.915c0 6.196 4.98 11.177 11.174 11.177H37.3v8.376H26.125a2.8 2.8 0 0 0-2.797 2.797v5.593h50.306v-5.593a2.8 2.8 0 0 0-2.797-2.797H59.663v-8.376h25.146a11.146 11.146 0 0 0 11.174-11.177V12.16c0-6.193-4.98-11.187-11.174-11.187H12.154zm2.797 11.187h67.06a2.782 2.782 0 0 1 2.798 2.785v36.336a2.791 2.791 0 0 1-2.798 2.794h-67.06a2.8 2.8 0 0 1-2.797-2.794V14.945a2.79 2.79 0 0 1 2.797-2.785z"/>
</svg>
